<svg width="20px" height="20px" viewBox="0 0 0.6 0.6" fill="none" xmlns="http://www.w3.org/2000/svg"><path d="M0.3 0.125c-0.136 0 -0.212 0.106 -0.239 0.153 -0.006 0.01 -0.008 0.014 -0.008 0.022 0 0.007 0.004 0.012 0.01 0.021C0.095 0.367 0.182 0.475 0.3 0.475s0.205 -0.108 0.237 -0.154c0.007 -0.009 0.01 -0.014 0.01 -0.021s-0.002 -0.012 -0.008 -0.022C0.512 0.231 0.436 0.125 0.3 0.125Z" stroke="#94AABB" stroke-width="0.05"/><path cx="12" cy="12" r="4" fill="#94AABB" d="M0.4 0.3A0.1 0.1 0 0 1 0.3 0.4A0.1 0.1 0 0 1 0.2 0.3A0.1 0.1 0 0 1 0.4 0.3z"/></svg>