<svg width="20" height="20" viewBox="0 0 20 20" fill="none" xmlns="http://www.w3.org/2000/svg" version="1.1" xmlns:xlink="http://www.w3.org/1999/xlink">
  <path d="M1.66668 4.39165L2.73334 3.33331L16.6667 17.2666L15.6083 18.3333L13.0417 15.7666C12.0833 16.0833 11.0667 16.25 10 16.25C5.83334 16.25 2.27501 13.6583 0.833344 9.99998C1.40834 8.53331 2.32501 7.24165 3.49168 6.21665L1.66668 4.39165ZM10 7.49998C10.6631 7.49998 11.2989 7.76337 11.7678 8.23221C12.2366 8.70105 12.5 9.33694 12.5 9.99998C12.5004 10.2838 12.4525 10.5656 12.3583 10.8333L9.16668 7.64165C9.4344 7.54747 9.71621 7.49956 10 7.49998ZM10 3.74998C14.1667 3.74998 17.725 6.34165 19.1667 9.99998C18.4862 11.7274 17.3305 13.2269 15.8333 14.325L14.65 13.1333C15.8025 12.3362 16.7319 11.2576 17.35 9.99998C16.6764 8.62487 15.6305 7.46634 14.3311 6.65611C13.0318 5.84588 11.5313 5.41645 10 5.41665C9.09168 5.41665 8.20001 5.56665 7.36668 5.83331L6.08334 4.55831C7.28334 4.04165 8.60834 3.74998 10 3.74998ZM2.65001 9.99998C3.32363 11.3751 4.36956 12.5336 5.66887 13.3439C6.96819 14.1541 8.46877 14.5835 10 14.5833C10.575 14.5833 11.1417 14.525 11.6667 14.4083L9.76668 12.5C9.18681 12.4378 8.6457 12.179 8.23332 11.7667C7.82095 11.3543 7.56216 10.8132 7.50001 10.2333L4.66668 7.39165C3.84168 8.09998 3.15001 8.98331 2.65001 9.99998Z" fill="#94AABB"></path>
</svg>